<?xml version="1.0" encoding="UTF-8" standalone="no"?>
<!DOCTYPE svg PUBLIC "-//W3C//DTD SVG 1.1//EN" "http://www.w3.org/Graphics/SVG/1.1/DTD/svg11.dtd">
<svg width="100%" height="100%" viewBox="0 0 600 600" version="1.1" xmlns="http://www.w3.org/2000/svg" xmlns:xlink="http://www.w3.org/1999/xlink" xml:space="preserve" xmlns:serif="http://www.serif.com/" style="fill-rule:evenodd;clip-rule:evenodd;stroke-linejoin:round;stroke-miterlimit:2;">
    <g transform="matrix(1,0,0,1,-272.795,-208.934)">
        <g transform="matrix(0.392607,-0.919706,0.919706,0.392607,-186.173,632.469)">
            <text x="385.752px" y="457.184px" style="font-family:'AppleMyungjo';font-size:96px;stroke:black;stroke-width:2.5px;">J</text>
        </g>
        <g transform="matrix(0.534795,-0.844982,0.844982,0.534795,-171.143,534.45)">
            <text x="399.806px" y="422.654px" style="font-family:'AppleMyungjo';font-size:96px;stroke:black;stroke-width:2.5px;">.</text>
        </g>
        <g transform="matrix(0.653101,-0.757271,0.757271,0.653101,-161.306,450.903)">
            <text x="411.502px" y="401.515px" style="font-family:'AppleMyungjo';font-size:96px;stroke:black;stroke-width:2.5px;">-</text>
        </g>
        <g transform="matrix(0.844176,-0.536066,0.536066,0.844176,-126.166,293.819)">
            <text x="442.315px" y="363.927px" style="font-family:'AppleMyungjo';font-size:96px;stroke:black;stroke-width:2.5px;">B</text>
        </g>
        <g transform="matrix(0.934087,-0.357046,0.357046,0.934087,-87.9335,195.74)">
            <text x="486.187px" y="336.034px" style="font-family:'AppleMyungjo';font-size:96px;stroke:black;stroke-width:2.5px;">.</text>
        </g>
        <g transform="matrix(0.999819,0.0190247,-0.0190247,0.999819,6.10915,-10.3257)">
            <text x="545.757px" y="315.925px" style="font-family:'AppleMyungjo';font-size:96px;stroke:black;stroke-width:2.5px;">C</text>
        </g>
        <g transform="matrix(0.941047,0.338276,-0.338276,0.941047,143.103,-187.048)">
            <text x="608.196px" y="317.041px" style="font-family:'AppleMyungjo';font-size:96px;stroke:black;stroke-width:2.5px;">L</text>
        </g>
        <g transform="matrix(0.763083,0.646301,-0.646301,0.763083,377.432,-352.523)">
            <text x="669.551px" y="338.548px" style="font-family:'AppleMyungjo';font-size:96px;stroke:black;stroke-width:2.5px;">A</text>
        </g>
        <g transform="matrix(0.554333,0.832295,-0.832295,0.554333,645.013,-429.352)">
            <text x="723.42px" y="387.614px" style="font-family:'AppleMyungjo';font-size:96px;stroke:black;stroke-width:2.5px;">I</text>
        </g>
        <g transform="matrix(0.314193,0.949359,-0.949359,0.314193,906.057,-421.931)">
            <text x="745.067px" y="416.16px" style="font-family:'AppleMyungjo';font-size:96px;stroke:black;stroke-width:2.5px;">R</text>
        </g>
    </g>
    <g transform="matrix(1,0,0,1,-198.549,-134.688)">
        <g transform="matrix(0.897099,-0.441829,0.441829,0.897099,-104.216,225.034)">
            <text x="431.011px" y="336.255px" style="font-family:'AppleMyungjo';font-size:48px;stroke:black;stroke-width:1px;">D</text>
        </g>
        <g transform="matrix(0.977065,-0.212942,0.212942,0.977065,-57.8467,105.931)">
            <text x="462.835px" y="321.505px" style="font-family:'AppleMyungjo';font-size:48px;stroke:black;stroke-width:1px;">e</text>
        </g>
        <g transform="matrix(0.999909,-0.0134768,0.0134768,0.999909,-4.22359,6.55721)">
            <text x="484.42px" y="316.66px" style="font-family:'AppleMyungjo';font-size:48px;stroke:black;stroke-width:1px;">p</text>
        </g>
        <g transform="matrix(0.977727,0.209882,-0.209882,0.977727,77.7228,-100.004)">
            <text x="510.034px" y="316.19px" style="font-family:'AppleMyungjo';font-size:48px;stroke:black;stroke-width:1px;">u</text>
        </g>
        <g transform="matrix(0.924157,0.382014,-0.382014,0.924157,164.004,-180.75)">
            <text x="537.209px" y="322.658px" style="font-family:'AppleMyungjo';font-size:48px;stroke:black;stroke-width:1px;">i</text>
        </g>
        <g transform="matrix(0.86071,0.509095,-0.509095,0.86071,243.618,-234.552)">
            <text x="550.444px" y="327.928px" style="font-family:'AppleMyungjo';font-size:48px;stroke:black;stroke-width:1px;">s</text>
        </g>
    </g>
    <g transform="matrix(1,0,0,1,-223.536,-159.675)">
        <g transform="matrix(0.748937,0.662641,-0.662641,0.748937,475.581,-137.712)">
            <text x="419.525px" y="558.754px" style="font-family:'AppleMyungjo';font-size:55px;stroke:black;stroke-width:1px;">e</text>
        </g>
        <g transform="matrix(0.87643,0.481529,-0.481529,0.87643,332.489,-140.761)">
            <text x="440.505px" y="577.443px" style="font-family:'AppleMyungjo';font-size:55px;stroke:black;stroke-width:1px;">n</text>
        </g>
        <g transform="matrix(0.996544,0.0830657,-0.0830657,0.996544,51.629,-38.9606)">
            <text x="494.037px" y="600.989px" style="font-family:'AppleMyungjo';font-size:55px;stroke:black;stroke-width:1px;">1</text>
        </g>
        <g transform="matrix(0.985999,-0.166749,0.166749,0.985999,-93.2727,96.8912)">
            <text x="530.357px" y="603.891px" style="font-family:'AppleMyungjo';font-size:55px;stroke:black;stroke-width:1px;">8</text>
        </g>
        <g transform="matrix(0.911407,-0.411506,0.411506,0.911407,-195.775,285.989)">
            <text x="566.31px" y="597.674px" style="font-family:'AppleMyungjo';font-size:55px;stroke:black;stroke-width:1px;">9</text>
        </g>
        <g transform="matrix(0.781095,-0.624413,0.624413,0.781095,-232.544,501.809)">
            <text x="599.416px" y="582.563px" style="font-family:'AppleMyungjo';font-size:55px;stroke:black;stroke-width:1px;">6</text>
        </g>
    </g>
    <g transform="matrix(1,0,0,1,-333.888,-264.125)">
        <g transform="matrix(0.603483,0.797376,-0.797376,0.603483,723.343,-54.0643)">
            <text x="416.032px" y="700.271px" style="font-family:'AppleMyungjo';font-size:72px;stroke:black;stroke-width:1px;">R</text>
        </g>
        <g transform="matrix(0.789875,0.613268,-0.613268,0.789875,558.8,-123.591)">
            <text x="459.756px" y="753.656px" style="font-family:'AppleMyungjo';font-size:72px;stroke:black;stroke-width:1px;">E</text>
        </g>
        <g transform="matrix(0.928205,0.372069,-0.372069,0.928205,331.539,-133.766)">
            <text x="512.385px" y="792.2px" style="font-family:'AppleMyungjo';font-size:72px;stroke:black;stroke-width:1px;">N</text>
        </g>
        <g transform="matrix(0.996276,0.0862169,-0.0862169,0.996276,72.661,-47.2658)">
            <text x="583.53px" y="817.568px" style="font-family:'AppleMyungjo';font-size:72px;stroke:black;stroke-width:1px;">A</text>
        </g>
        <g transform="matrix(0.989547,-0.144212,0.144212,0.989547,-111.418,103.184)">
            <text x="656.053px" y="820.15px" style="font-family:'AppleMyungjo';font-size:72px;stroke:black;stroke-width:1px;">I</text>
        </g>
        <g transform="matrix(0.939736,-0.3419,0.3419,0.939736,-235.673,288.244)">
            <text x="699.826px" y="812.655px" style="font-family:'AppleMyungjo';font-size:72px;stroke:black;stroke-width:1px;">S</text>
        </g>
        <g transform="matrix(0.824308,-0.566142,0.566142,0.824308,-315.457,565.921)">
            <text x="754.068px" y="791.217px" style="font-family:'AppleMyungjo';font-size:72px;stroke:black;stroke-width:1px;">O</text>
        </g>
        <g transform="matrix(0.631672,-0.775236,0.775236,0.631672,-283.041,904.323)">
            <text x="810.163px" y="750.025px" style="font-family:'AppleMyungjo';font-size:72px;stroke:black;stroke-width:1px;">N</text>
        </g>
    </g>
    <g transform="matrix(1.14472,0,0,1.10211,50.6547,39.5557)">
        <ellipse cx="217.981" cy="236.355" rx="152.518" ry="158.416" style="fill:none;stroke:black;stroke-width:8.9px;stroke-linecap:round;stroke-miterlimit:1.5;"/>
    </g>
    <g transform="matrix(1.86607,0,0,1.7966,-106.585,-124.59)">
        <ellipse cx="217.981" cy="236.355" rx="152.518" ry="158.416" style="fill:none;stroke:black;stroke-width:5.46px;stroke-linecap:round;stroke-miterlimit:1.5;"/>
    </g>
    <g transform="matrix(1,0,0,1,-200,-200)">
        <g transform="matrix(55,0,0,55,559.679,468.257)">
        </g>
        <text x="435.593px" y="468.257px" style="font-family:'AppleMyungjo';font-size:55px;stroke:black;stroke-width:1px;">1<tspan x="465.24px 494.886px 524.532px " y="468.257px 468.257px 468.257px ">536</tspan></text>
    </g>
    <g transform="matrix(1,0,0,1,-200,-110)">
        <g transform="matrix(55,0,0,55,564.131,468.257)">
        </g>
        <text x="431.141px" y="468.257px" style="font-family:'BodoniSvtyTwoITCTT-Book', 'Bodoni 72';font-size:55px;stroke:black;stroke-width:1px;">Fondé</text>
    </g>
    <g transform="matrix(0.229167,0,0,0.241228,45.3707,305.953)">
        <path d="M56,237L130,9L204,237L10,96L250,96" style="fill-rule:nonzero;"/>
    </g>
    <g transform="matrix(0.229167,0,0,0.241228,494.371,305.953)">
        <path d="M56,237L130,9L204,237L10,96L250,96" style="fill-rule:nonzero;"/>
    </g>
</svg>
